With: Coline Serreau, Vincent Lindon en Marion Cotillard

Ergens in het universum is een planeet waar de bewoners in perfecte harmonie met de natuur leven. Af en toe gaan enkelen op excursie naar een andere planeet. Vreemd genoeg wil er al 200 jaar niemand meer de Aarde bezoeken, tot op een mooie dag Mila besluit om onze planeet, om persoonlijke redenen, te bezoeken. Ze landt in Parijs.

If you don't understand French you are gonna miss a lot in this film because the dialogues are incredible. It was really difficult to get a hold of this film in France and after seeing it I understand why. It shows our society for what it is and how we are all just a bunch of sheep following the leader.

English subs included, not hardcoded.

------------------ Dutch Friends ------------------
You can find my Friends at: http://www.Film-Test.nl 
------ They got my dutch subs ----- and more ------

General:

Complete name                    : Le Belle Verte\Le Belle Verte.avi
Format                           : AVI
Format/Info                      : Audio Video Interleave
File size                        : 1.04 GiB
Duration                         : 1h 29mn
Overall bit rate                 : 1 667 Kbps

Video:

Format                           : MPEG-4 Visual
Format profile                   : Simple@L3
Format settings, BVOP            : No
Format settings, QPel            : No
Format settings, GMC             : No warppoints
Format settings, Matrix          : Default (H.263)
Codec ID                         : XVID
Codec ID/Hint                    : XviD
Duration                         : 1h 29mn
Bit rate                         : 1 496 Kbps
Width                            : 720 pixels
Height                           : 304 pixels
Display aspect ratio             : 2.35:1
Frame rate                       : 23.976 fps
Color space                      : YUV
Chroma subsampling               : 4:2:0
Bit depth                        : 8 bits
Scan type                        : Progressive
Bits/(Pixel*Frame)               : 0.285
Stream size                      : 960 MiB (90%)
Writing library                  : XviD 1.1.2 (UTC 2006-11-01)

Audio:

Format                           : AC-3
Format/Info                      : Audio Coding 3
Mode extension                   : CM (complete main)
Codec ID                         : 2000
Duration                         : 1h 29mn
Bit rate mode                    : Constant
Bit rate                         : 160 Kbps
Channel(s)                       : 2 channels
Channel positions                : Front: L R
Sampling rate                    : 48.0 KHz
Bit depth                        : 16 bits
Stream size                      : 103 MiB (10%)
Alignment                        : Aligned on interleaves
Interleave, duration             : 32 ms (0.77 video frame)
Interleave, preload duration     : 32 ms

